<svg width="100" height="102" viewBox="0 0 100 102" fill="none" xmlns="http://www.w3.org/2000/svg">
<g filter="url(#filter0_f_2070_6569)">
<path d="M26 12.6836L61.2531 47.6328C63.2262 49.5889 63.2262 52.7783 61.2531 54.7344L26 89.6836" stroke="url(#paint0_linear_2070_6569)" stroke-width="4" stroke-linecap="round"/>
</g>
<g filter="url(#filter1_f_2070_6569)">
<path d="M54.7773 12.6836L89.4531 47.6635C91.3852 49.6126 91.3852 52.7546 89.4531 54.7037L54.7773 89.6836" stroke="url(#paint1_linear_2070_6569)" stroke-width="4" stroke-linecap="round"/>
</g>
<path d="M26 12.6836L61.2531 47.6328C63.2262 49.5889 63.2262 52.7783 61.2531 54.7344L26 89.6836" stroke="url(#paint2_linear_2070_6569)" stroke-width="2" stroke-linecap="round"/>
<path d="M54.7773 12.6836L89.4531 47.6635C91.3852 49.6126 91.3852 52.7546 89.4531 54.7037L54.7773 89.6836" stroke="url(#paint3_linear_2070_6569)" stroke-width="2" stroke-linecap="round"/>
<defs>
<filter id="filter0_f_2070_6569" x="17" y="3.68359" width="54.7329" height="95" filterUnits="userSpaceOnUse" color-interpolation-filters="sRGB">
<feFlood flood-opacity="0" result="BackgroundImageFix"/>
<feBlend mode="normal" in="SourceGraphic" in2="BackgroundImageFix" result="shape"/>
<feGaussianBlur stdDeviation="3.5" result="effect1_foregroundBlur_2070_6569"/>
</filter>
<filter id="filter1_f_2070_6569" x="45.7773" y="3.68359" width="54.1248" height="95" filterUnits="userSpaceOnUse" color-interpolation-filters="sRGB">
<feFlood flood-opacity="0" result="BackgroundImageFix"/>
<feBlend mode="normal" in="SourceGraphic" in2="BackgroundImageFix" result="shape"/>
<feGaussianBlur stdDeviation="3.5" result="effect1_foregroundBlur_2070_6569"/>
</filter>
<linearGradient id="paint0_linear_2070_6569" x1="45.4174" y1="12.6836" x2="45.4174" y2="89.6836" gradientUnits="userSpaceOnUse">
<stop stop-color="#58B57A"/>
<stop offset="1" stop-color="#0C7856"/>
</linearGradient>
<linearGradient id="paint1_linear_2070_6569" x1="73.86" y1="12.6836" x2="73.86" y2="89.6836" gradientUnits="userSpaceOnUse">
<stop stop-color="#58B57A"/>
<stop offset="1" stop-color="#0C7856"/>
</linearGradient>
<linearGradient id="paint2_linear_2070_6569" x1="45.4174" y1="12.6836" x2="45.4174" y2="89.6836" gradientUnits="userSpaceOnUse">
<stop stop-color="#58B57A"/>
<stop offset="1" stop-color="#0C7856"/>
</linearGradient>
<linearGradient id="paint3_linear_2070_6569" x1="73.86" y1="12.6836" x2="73.86" y2="89.6836" gradientUnits="userSpaceOnUse">
<stop stop-color="#58B57A"/>
<stop offset="1" stop-color="#0C7856"/>
</linearGradient>
</defs>
</svg>
