<svg width="333" height="236" viewBox="0 0 333 236" fill="none" xmlns="http://www.w3.org/2000/svg">
<path d="M166.5 235.92C258.455 235.92 333 219.578 333 199.42C333 179.261 258.455 162.92 166.5 162.92C74.5446 162.92 0 179.261 0 199.42C0 219.578 74.5446 235.92 166.5 235.92Z" fill="url(#paint0_radial_2017_181424)"/>
<g filter="url(#filter0_d_2017_181424)">
<path d="M166.711 191.224C98.959 191.224 44.0137 184.063 44.0137 175.112V200.863C44.0137 209.814 98.959 216.975 166.711 216.975C234.463 216.975 289.408 209.676 289.408 200.863V175.112C289.271 184.063 234.463 191.224 166.711 191.224Z" fill="url(#paint1_linear_2017_181424)"/>
</g>
<path d="M166.711 206.922C98.959 206.922 44.0137 199.624 44.0137 190.673V194.391C44.0137 203.342 98.959 210.502 166.711 210.502C234.463 210.502 289.408 203.204 289.408 194.391V190.673C289.271 199.624 234.463 206.922 166.711 206.922Z" fill="#859FA8"/>
<path d="M166.711 204.994C98.959 204.994 44.0137 197.834 44.0137 188.883V192.601C44.0137 201.552 98.959 208.712 166.711 208.712C234.463 208.712 289.408 201.414 289.408 192.601V188.883C289.271 197.834 234.463 204.994 166.711 204.994Z" fill="url(#paint2_linear_2017_181424)"/>
<g filter="url(#filter1_d_2017_181424)">
<path d="M166.711 205.958C98.959 205.958 44.0137 198.797 44.0137 189.846V193.565C44.0137 202.516 98.959 209.676 166.711 209.676C234.463 209.676 289.408 202.378 289.408 193.565V189.846C289.271 198.797 234.463 205.958 166.711 205.958Z" fill="url(#paint3_linear_2017_181424)"/>
</g>
<g filter="url(#filter2_d_2017_181424)">
<path d="M166.711 191.224C234.475 191.224 289.408 184.01 289.408 175.112C289.408 166.213 234.475 159 166.711 159C98.9472 159 44.0137 166.213 44.0137 175.112C44.0137 184.01 98.9472 191.224 166.711 191.224Z" fill="url(#paint4_radial_2017_181424)"/>
<path d="M289.158 175.112C289.158 176.088 288.401 177.109 286.781 178.148C285.174 179.179 282.788 180.183 279.692 181.144C273.503 183.066 264.536 184.799 253.439 186.257C231.249 189.171 200.586 190.974 166.711 190.974C132.836 190.974 102.174 189.171 79.9835 186.257C68.8866 184.799 59.9187 183.066 53.73 181.144C50.6338 180.183 48.2481 179.179 46.6415 178.148C45.021 177.109 44.2637 176.088 44.2637 175.112C44.2637 174.136 45.021 173.115 46.6415 172.075C48.2481 171.044 50.6338 170.04 53.73 169.079C59.9187 167.158 68.8866 165.424 79.9835 163.967C102.174 161.053 132.836 159.25 166.711 159.25C200.586 159.25 231.249 161.053 253.439 163.967C264.536 165.424 273.503 167.158 279.692 169.079C282.788 170.04 285.174 171.044 286.781 172.075C288.401 173.115 289.158 174.136 289.158 175.112Z" stroke="#71B0CA" stroke-width="0.5"/>
</g>
<g filter="url(#filter3_d_2017_181424)">
<path d="M166.573 183.787C225.134 183.787 272.608 180.088 272.608 175.525C272.608 170.962 225.134 167.262 166.573 167.262C108.012 167.262 60.5381 170.962 60.5381 175.525C60.5381 180.088 108.012 183.787 166.573 183.787Z" fill="#71B0CA"/>
</g>
<g opacity="0.1" filter="url(#filter4_f_2017_181424)">
<path d="M47 11L95.2759 175H241.069L285 11H47Z" fill="url(#paint5_linear_2017_181424)"/>
</g>
<defs>
<filter id="filter0_d_2017_181424" x="40.0137" y="175.112" width="253.395" height="49.863" filterUnits="userSpaceOnUse" color-interpolation-filters="sRGB">
<feFlood flood-opacity="0" result="BackgroundImageFix"/>
<feColorMatrix in="SourceAlpha" type="matrix" values="0 0 0 0 0 0 0 0 0 0 0 0 0 0 0 0 0 0 127 0" result="hardAlpha"/>
<feOffset dy="4"/>
<feGaussianBlur stdDeviation="2"/>
<feComposite in2="hardAlpha" operator="out"/>
<feColorMatrix type="matrix" values="0 0 0 0 0 0 0 0 0 0 0 0 0 0 0 0 0 0 0.25 0"/>
<feBlend mode="normal" in2="BackgroundImageFix" result="effect1_dropShadow_2017_181424"/>
<feBlend mode="normal" in="SourceGraphic" in2="effect1_dropShadow_2017_181424" result="shape"/>
</filter>
<filter id="filter1_d_2017_181424" x="40.0137" y="185.846" width="253.395" height="27.8298" filterUnits="userSpaceOnUse" color-interpolation-filters="sRGB">
<feFlood flood-opacity="0" result="BackgroundImageFix"/>
<feColorMatrix in="SourceAlpha" type="matrix" values="0 0 0 0 0 0 0 0 0 0 0 0 0 0 0 0 0 0 127 0" result="hardAlpha"/>
<feOffset/>
<feGaussianBlur stdDeviation="2"/>
<feComposite in2="hardAlpha" operator="out"/>
<feColorMatrix type="matrix" values="0 0 0 0 0.0235294 0 0 0 0 0.894118 0 0 0 0 0.917647 0 0 0 1 0"/>
<feBlend mode="normal" in2="BackgroundImageFix" result="effect1_dropShadow_2017_181424"/>
<feBlend mode="normal" in="SourceGraphic" in2="effect1_dropShadow_2017_181424" result="shape"/>
</filter>
<filter id="filter2_d_2017_181424" x="42.0137" y="157" width="249.395" height="36.2236" filterUnits="userSpaceOnUse" color-interpolation-filters="sRGB">
<feFlood flood-opacity="0" result="BackgroundImageFix"/>
<feColorMatrix in="SourceAlpha" type="matrix" values="0 0 0 0 0 0 0 0 0 0 0 0 0 0 0 0 0 0 127 0" result="hardAlpha"/>
<feOffset/>
<feGaussianBlur stdDeviation="1"/>
<feComposite in2="hardAlpha" operator="out"/>
<feColorMatrix type="matrix" values="0 0 0 0 0.443137 0 0 0 0 0.690196 0 0 0 0 0.792157 0 0 0 1 0"/>
<feBlend mode="normal" in2="BackgroundImageFix" result="effect1_dropShadow_2017_181424"/>
<feBlend mode="normal" in="SourceGraphic" in2="effect1_dropShadow_2017_181424" result="shape"/>
</filter>
<filter id="filter3_d_2017_181424" x="56.5381" y="163.262" width="220.07" height="24.5249" filterUnits="userSpaceOnUse" color-interpolation-filters="sRGB">
<feFlood flood-opacity="0" result="BackgroundImageFix"/>
<feColorMatrix in="SourceAlpha" type="matrix" values="0 0 0 0 0 0 0 0 0 0 0 0 0 0 0 0 0 0 127 0" result="hardAlpha"/>
<feOffset/>
<feGaussianBlur stdDeviation="2"/>
<feComposite in2="hardAlpha" operator="out"/>
<feColorMatrix type="matrix" values="0 0 0 0 0.0235294 0 0 0 0 0.862745 0 0 0 0 0.909804 0 0 0 1 0"/>
<feBlend mode="normal" in2="BackgroundImageFix" result="effect1_dropShadow_2017_181424"/>
<feBlend mode="normal" in="SourceGraphic" in2="effect1_dropShadow_2017_181424" result="shape"/>
</filter>
<filter id="filter4_f_2017_181424" x="36" y="0" width="260" height="186" filterUnits="userSpaceOnUse" color-interpolation-filters="sRGB">
<feFlood flood-opacity="0" result="BackgroundImageFix"/>
<feBlend mode="normal" in="SourceGraphic" in2="BackgroundImageFix" result="shape"/>
<feGaussianBlur stdDeviation="5.5" result="effect1_foregroundBlur_2017_181424"/>
</filter>
<radialGradient id="paint0_radial_2017_181424" cx="0" cy="0" r="1" gradientUnits="userSpaceOnUse" gradientTransform="translate(166.313 200.356) rotate(-180) scale(155.101 28.5491)">
<stop stop-color="#474DD4"/>
<stop offset="1" stop-color="#474DD4" stop-opacity="0"/>
</radialGradient>
<linearGradient id="paint1_linear_2017_181424" x1="44.0137" y1="196.063" x2="289.34" y2="196.063" gradientUnits="userSpaceOnUse">
<stop stop-color="#181818"/>
<stop offset="0.2081" stop-color="#262957"/>
<stop offset="0.5216" stop-color="#272A5B"/>
<stop offset="0.8568" stop-color="#0E1111"/>
<stop offset="1" stop-color="#0E1111"/>
</linearGradient>
<linearGradient id="paint2_linear_2017_181424" x1="44.0137" y1="198.819" x2="289.34" y2="198.819" gradientUnits="userSpaceOnUse">
<stop stop-color="#06F7F0"/>
<stop offset="0.2405" stop-color="#FFABFB"/>
<stop offset="0.3919" stop-color="#6D0996"/>
<stop offset="0.527" stop-color="#390679"/>
<stop offset="0.6784" stop-color="#6D0996"/>
<stop offset="0.7595" stop-color="#FFABFB"/>
<stop offset="1" stop-color="#06F7F0"/>
</linearGradient>
<linearGradient id="paint3_linear_2017_181424" x1="44.0137" y1="199.738" x2="289.34" y2="199.738" gradientUnits="userSpaceOnUse">
<stop stop-color="#06F7F0"/>
<stop offset="0.1432" stop-color="#0668C9"/>
<stop offset="0.2405" stop-color="#EF54E0"/>
<stop offset="0.3919" stop-color="#602D7D"/>
<stop offset="0.527" stop-color="#34046A"/>
<stop offset="0.6784" stop-color="#643181"/>
<stop offset="0.7595" stop-color="#EF54E0"/>
<stop offset="0.9" stop-color="#0654BD"/>
<stop offset="1" stop-color="#06F7F0"/>
</linearGradient>
<radialGradient id="paint4_radial_2017_181424" cx="0" cy="0" r="1" gradientUnits="userSpaceOnUse" gradientTransform="translate(166.573 175.525) rotate(-178.14) scale(106.091 16.5336)">
<stop stop-color="#303375"/>
<stop offset="1" stop-color="#0E1111"/>
</radialGradient>
<linearGradient id="paint5_linear_2017_181424" x1="187.966" y1="175" x2="187.966" y2="10.6298" gradientUnits="userSpaceOnUse">
<stop stop-color="#71B0CA"/>
<stop offset="1" stop-color="#71B0CA" stop-opacity="0"/>
</linearGradient>
</defs>
</svg>
