<svg width="19" height="19" viewBox="0 0 19 19" fill="none" xmlns="http://www.w3.org/2000/svg">
<path d="M9.25934 13.1954C11.359 13.1954 13.0612 11.4933 13.0612 9.39362C13.0612 7.29393 11.359 5.5918 9.25934 5.5918C7.15965 5.5918 5.45752 7.29393 5.45752 9.39362C5.45752 11.4933 7.15965 13.1954 9.25934 13.1954Z" stroke="#C1C1C1" stroke-miterlimit="10"/>
<path d="M13.4413 0.650391H5.07733C2.5577 0.650391 0.515137 2.69295 0.515137 5.21258V13.5766C0.515137 16.0962 2.5577 18.1388 5.07733 18.1388H13.4413C15.961 18.1388 18.0035 16.0962 18.0035 13.5766V5.21258C18.0035 2.69295 15.961 0.650391 13.4413 0.650391Z" stroke="#C1C1C1" stroke-linecap="round" stroke-linejoin="round"/>
<path d="M14.2016 5.59359C14.8315 5.59359 15.3421 5.08295 15.3421 4.45305C15.3421 3.82314 14.8315 3.3125 14.2016 3.3125C13.5717 3.3125 13.061 3.82314 13.061 4.45305C13.061 5.08295 13.5717 5.59359 14.2016 5.59359Z" fill="#C1C1C1"/>
</svg>
