<svg width="19" height="20" viewBox="0 0 19 20" fill="none" xmlns="http://www.w3.org/2000/svg">
<path d="M17.2432 1.16211H1.2755C0.855564 1.16211 0.515137 1.50254 0.515137 1.92247V17.8901C0.515137 18.3101 0.855564 18.6505 1.2755 18.6505H17.2432C17.6631 18.6505 18.0035 18.3101 18.0035 17.8901V1.92247C18.0035 1.50254 17.6631 1.16211 17.2432 1.16211Z" stroke="#C1C1C1" stroke-linecap="round" stroke-linejoin="round"/>
<path d="M8.49854 8.38477V14.4677" stroke="#C1C1C1" stroke-linecap="round" stroke-linejoin="round"/>
<path d="M5.45752 8.38477V14.4677" stroke="#C1C1C1" stroke-linecap="round" stroke-linejoin="round"/>
<path d="M8.49854 11.046C8.49854 10.3402 8.77892 9.66332 9.278 9.16424C9.77709 8.66515 10.454 8.38477 11.1598 8.38477C11.8656 8.38477 12.5425 8.66515 13.0416 9.16424C13.5407 9.66332 13.8211 10.3402 13.8211 11.046V14.4677" stroke="#C1C1C1" stroke-linecap="round" stroke-linejoin="round"/>
<path d="M5.45744 6.48422C6.08735 6.48422 6.59799 5.97358 6.59799 5.34367C6.59799 4.71377 6.08735 4.20312 5.45744 4.20312C4.82753 4.20312 4.31689 4.71377 4.31689 5.34367C4.31689 5.97358 4.82753 6.48422 5.45744 6.48422Z" fill="#C1C1C1"/>
</svg>
