<svg width="238" height="51" viewBox="0 0 238 51" fill="none" xmlns="http://www.w3.org/2000/svg">
<g clip-path="url(#clip0_1089_73907)">
<mask id="mask0_1089_73907" style="mask-type:luminance" maskUnits="userSpaceOnUse" x="0" y="0" width="238" height="51">
<path d="M238 0H0V51H238V0Z" fill="white"/>
</mask>
<g mask="url(#mask0_1089_73907)">
<path d="M76.1781 46.7187H75.1523L74.314 44.5043H70.9607L70.172 46.7187H69.1406L72.174 38.8197H73.1337L76.1781 46.7187ZM74.0106 43.6726L72.7697 40.307C72.7292 40.1968 72.6888 40.0205 72.6483 39.7782H72.6263C72.5895 40.0022 72.5472 40.1784 72.4994 40.307L71.2695 43.6726H74.0106Z" fill="white"/>
<path d="M82.5097 46.3882C81.9251 46.6967 81.197 46.8509 80.3256 46.8509C79.2005 46.8509 78.2997 46.4892 77.6231 45.7658C76.9466 45.0423 76.6083 44.0931 76.6083 42.9179C76.6083 41.6547 76.9889 40.6338 77.75 39.8553C78.5111 39.0768 79.4763 38.6875 80.6455 38.6875C81.3956 38.6875 82.017 38.7958 82.5097 39.0125V39.9985C81.9434 39.6827 81.3184 39.5248 80.6345 39.5248C79.7263 39.5248 78.9891 39.8277 78.4229 40.4337C77.8603 41.0396 77.579 41.8493 77.579 42.8629C77.579 43.825 77.8419 44.5925 78.3677 45.1654C78.8972 45.7346 79.5903 46.0192 80.447 46.0192C81.2412 46.0192 81.9287 45.8429 82.5097 45.4903V46.3882Z" fill="white"/>
<path d="M90.2421 46.7187H89.2163L88.378 44.5043H85.0247L84.236 46.7187H83.2046L86.238 38.8197H87.1977L90.2421 46.7187ZM88.0746 43.6726L86.8337 40.307C86.7932 40.1968 86.7528 40.0205 86.7123 39.7782H86.6903C86.6535 40.0022 86.6112 40.1784 86.5634 40.307L85.3335 43.6726H88.0746Z" fill="white"/>
<path d="M91.4114 46.7187V38.8197H93.5954C96.3825 38.8197 97.776 40.1032 97.776 42.6701C97.776 43.8892 97.3881 44.8697 96.6123 45.6115C95.8401 46.3497 94.8051 46.7187 93.5072 46.7187H91.4114ZM92.3379 39.657V45.8814H93.5182C94.5551 45.8814 95.3621 45.6042 95.9394 45.0497C96.5167 44.4952 96.8053 43.7093 96.8053 42.6921C96.8053 40.6687 95.728 39.657 93.5734 39.657H92.3379Z" fill="white"/>
<path d="M103.523 46.7187H99.3313V38.8197H103.346V39.657H100.258V42.2845H103.115V43.1162H100.258V45.8814H103.523V46.7187Z" fill="white"/>
<path d="M113.109 46.7187H112.187V41.4197C112.187 41.001 112.213 40.4887 112.265 39.8828H112.243C112.154 40.239 112.075 40.4942 112.005 40.6485L109.303 46.7187H108.851L106.154 40.6925C106.077 40.5163 105.997 40.2464 105.917 39.8828H105.895C105.924 40.1986 105.939 40.7146 105.939 41.4307V46.7187H105.045V38.8197H106.27L108.696 44.3281C108.884 44.7504 109.005 45.0662 109.06 45.2755H109.093C109.251 44.8422 109.378 44.519 109.474 44.306L111.95 38.8197H113.109V46.7187Z" fill="white"/>
<path d="M120.334 38.8197L117.725 43.7993V46.7187H116.798V43.8213L114.256 38.8197H115.309L117.08 42.3891C117.102 42.4332 117.166 42.5948 117.273 42.8739H117.289C117.326 42.749 117.396 42.5874 117.499 42.3891L119.352 38.8197H120.334Z" fill="white"/>
<path d="M127.724 46.8509C126.603 46.8509 125.704 46.4819 125.027 45.7437C124.354 45.0056 124.018 44.0453 124.018 42.8629C124.018 41.5923 124.362 40.5787 125.049 39.8222C125.737 39.0657 126.672 38.6875 127.856 38.6875C128.948 38.6875 129.827 39.0547 130.493 39.7892C131.162 40.5236 131.496 41.4839 131.496 42.6701C131.496 43.959 131.155 44.9781 130.471 45.7272C129.787 46.4763 128.871 46.8509 127.724 46.8509ZM127.79 39.5248C126.959 39.5248 126.285 39.8241 125.766 40.4226C125.248 41.0212 124.988 41.8071 124.988 42.7802C124.988 43.7534 125.24 44.5374 125.744 45.1323C126.251 45.7235 126.911 46.0192 127.724 46.0192C128.592 46.0192 129.276 45.7364 129.776 45.1709C130.276 44.6053 130.526 43.814 130.526 42.7967C130.526 41.7538 130.283 40.9478 129.798 40.3786C129.312 39.8094 128.643 39.5248 127.79 39.5248Z" fill="white"/>
<path d="M137.067 39.657H133.978V42.3891H136.835V43.2209H133.978V46.7187H133.052V38.8197H137.067V39.657Z" fill="white"/>
<path d="M145.858 46.7187H141.667V38.8197H145.682V39.657H142.593V42.2845H145.45V43.1162H142.593V45.8814H145.858V46.7187Z" fill="white"/>
<path d="M152.841 46.7187H151.71L149.89 43.6946C149.835 43.6028 149.774 43.4724 149.708 43.3035H149.686C149.649 43.388 149.587 43.5183 149.498 43.6946L147.623 46.7187H146.487L149.134 42.7472L146.697 38.8197H147.833L149.449 41.5959C149.555 41.7795 149.649 41.9631 149.73 42.1468H149.752C149.87 41.9044 149.973 41.7134 150.061 41.5739L151.743 38.8197H152.808L150.32 42.7362L152.841 46.7187Z" fill="white"/>
<path d="M159.294 46.3882C158.709 46.6967 157.981 46.8509 157.109 46.8509C155.984 46.8509 155.084 46.4892 154.407 45.7658C153.73 45.0423 153.392 44.0931 153.392 42.9179C153.392 41.6547 153.773 40.6338 154.534 39.8553C155.295 39.0768 156.26 38.6875 157.429 38.6875C158.179 38.6875 158.801 38.7958 159.294 39.0125V39.9985C158.727 39.6827 158.102 39.5248 157.418 39.5248C156.51 39.5248 155.773 39.8277 155.207 40.4337C154.644 41.0396 154.363 41.8493 154.363 42.8629C154.363 43.825 154.626 44.5925 155.152 45.1654C155.681 45.7346 156.374 46.0192 157.231 46.0192C158.025 46.0192 158.713 45.8429 159.294 45.4903V46.3882Z" fill="white"/>
<path d="M165.096 46.7187H160.904V38.8197H164.919V39.657H161.831V42.2845H164.687V43.1162H161.831V45.8814H165.096V46.7187Z" fill="white"/>
<path d="M170.721 46.7187H166.618V38.8197H167.544V45.8814H170.721V46.7187Z" fill="white"/>
<path d="M176.038 46.7187H171.935V38.8197H172.861V45.8814H176.038V46.7187Z" fill="white"/>
<path d="M181.443 46.7187H177.251V38.8197H181.266V39.657H178.178V42.2845H181.035V43.1162H178.178V45.8814H181.443V46.7187Z" fill="white"/>
<path d="M189.341 46.7187H188.205L184.134 40.4226C184.031 40.2647 183.947 40.0995 183.881 39.9269H183.848C183.877 40.0958 183.892 40.4575 183.892 41.012V46.7187H182.965V38.8197H184.167L188.127 45.0166C188.293 45.2737 188.4 45.45 188.447 45.5454H188.469C188.433 45.3178 188.414 44.9303 188.414 44.3832V38.8197H189.341V46.7187Z" fill="white"/>
<path d="M196.798 46.3882C196.213 46.6967 195.485 46.8509 194.613 46.8509C193.488 46.8509 192.588 46.4892 191.911 45.7658C191.234 45.0423 190.896 44.0931 190.896 42.9179C190.896 41.6547 191.277 40.6338 192.038 39.8553C192.799 39.0768 193.764 38.6875 194.933 38.6875C195.683 38.6875 196.305 38.7958 196.798 39.0125V39.9985C196.231 39.6827 195.606 39.5248 194.922 39.5248C194.014 39.5248 193.277 39.8277 192.711 40.4337C192.148 41.0396 191.867 41.8493 191.867 42.8629C191.867 43.825 192.13 44.5925 192.656 45.1654C193.185 45.7346 193.878 46.0192 194.735 46.0192C195.529 46.0192 196.217 45.8429 196.798 45.4903V46.3882Z" fill="white"/>
<path d="M202.6 46.7187H198.408V38.8197H202.423V39.657H199.335V42.2845H202.191V43.1162H199.335V45.8814H202.6V46.7187Z" fill="white"/>
<path d="M108.596 0C103.472 0 101.72 3.42877 100.863 5.96632L94.0051 23.9725C93.8674 24.361 93.6062 24.361 93.5201 24.361C93.434 24.361 93.2695 24.361 93.2695 23.9436V7.30384C93.2702 2.79702 90.421 0 85.8358 0C80.7119 0 78.9597 3.42877 78.0999 5.97478L68.7812 30.9915H76.5454L85.2491 7.57741C85.4496 7.09091 85.6416 7.09091 85.7136 7.09091C85.7856 7.09091 86.0059 7.09091 86.0059 7.54991V24.1508C86.0059 28.6788 88.8389 31.4921 93.398 31.4921C98.5599 31.4921 100.316 28.0633 101.173 25.5257L108.031 7.52171C108.102 7.32288 108.259 7.09091 108.474 7.09091C108.549 7.09091 108.725 7.09091 108.725 7.54991V30.9915H116.034V7.30102C116.031 2.79702 113.185 0 108.596 0Z" fill="#474DD4"/>
<path d="M135.735 22.0661C141.471 22.0661 144.38 19.5399 144.38 14.5578C144.38 10.9422 142.887 6.63281 135.778 6.63281H128.635C123.009 6.63281 119.781 9.7034 119.781 15.0577V22.5667C119.781 27.9211 123.009 30.9924 128.635 30.9924H143.294V24.3626H128.635C126.685 24.3626 126.421 23.4135 126.421 22.485V22.0683L135.735 22.0661ZM126.421 16.2683V15.1C126.421 14.2257 126.674 13.2224 128.635 13.2224H135.735C137.461 13.2224 137.698 13.9846 137.698 14.8081C137.698 15.4582 137.698 16.2676 135.61 16.2676L126.421 16.2683Z" fill="#474DD4"/>
<path d="M160.835 6.63281H151.728C148.782 6.63281 147.469 8.04789 147.469 11.2207V30.9902H154.234V13.2224H160.833C165.653 13.2224 166.304 15.3517 166.304 17.4352V30.9902H173.113V17.4359C173.113 10.4698 168.752 6.63281 160.835 6.63281Z" fill="#474DD4"/>
<path d="M184.588 1.41797H177.78V6.63127H174.773V13.2216H177.78V22.2324C177.78 28.3722 180.078 30.9908 185.464 30.9908H190.601V24.6092H186.384C185.08 24.6092 184.588 24.4259 184.588 22.4813V13.2216H190.685V6.63127H184.588V1.41797Z" fill="#474DD4"/>
<path d="M206.976 6.63493H202.34C195.519 6.63493 191.609 11.0769 191.609 18.8151C191.609 26.5532 195.519 30.9924 202.341 30.9924H206.977C213.798 30.9924 217.707 26.5504 217.707 18.8129C217.707 11.0755 213.795 6.63281 206.977 6.63281M210.902 18.8129C210.902 23.4326 209.241 24.3604 206.559 24.3604H202.758C200.005 24.3604 198.415 23.453 198.415 18.8129C198.415 14.1595 200.077 13.2231 202.758 13.2231H206.559C209.241 13.2231 210.902 14.158 210.902 18.8129Z" fill="#474DD4"/>
<path d="M227.766 6.63281C222.895 6.63281 220.625 9.04486 220.625 14.2243V30.9902H227.389V14.892C227.389 13.5975 227.764 13.2231 229.06 13.2231H237.997V6.63281H227.766Z" fill="#474DD4"/>
<path d="M57.5129 26.1787V4.49346L38.5735 24.7058L38.5777 3.85114L19.6383 24.0635L19.6425 3.21094L0 24.2926L0.105894 45.9778L18.9394 25.7627L19.0411 46.6173L37.8753 26.4078L37.9805 47.2589L57.5129 26.1787Z" fill="#474DD4"/>
</g>
</g>
<defs>
<clipPath id="clip0_1089_73907">
<rect width="238" height="51" fill="white"/>
</clipPath>
</defs>
</svg>
