<?xml version="1.0" encoding="utf-8"?>
<!-- Generator: Adobe Illustrator 26.0.2, SVG Export Plug-In . SVG Version: 6.00 Build 0)  -->
<svg version="1.1" id="Layer_1" xmlns="http://www.w3.org/2000/svg" xmlns:xlink="http://www.w3.org/1999/xlink" x="0px" y="0px"
	 viewBox="0 0 238 44" enable-background="new 0 0 238 44" xml:space="preserve">
<g>
	<g>
		<path id="Path_225_00000004518104603507703700000008200216678307744935_" fill="#FFFFFF" d="M109,6.3c-5.1,0-6.9,3.4-7.7,6
			l-6.8,18c-0.1,0.4-0.4,0.4-0.5,0.4s-0.2,0-0.2-0.4V13.6c0-4.5-2.8-7.3-7.4-7.3c-5.1,0-6.9,3.4-7.7,6l-9.3,25H77l8.7-23.4
			c0.2-0.5,0.4-0.5,0.5-0.5c0.1,0,0.3,0,0.3,0.5v16.6c0,4.5,2.8,7.3,7.4,7.3c5.1,0,6.9-3.4,7.8-6l6.8-18c0.1-0.2,0.2-0.4,0.4-0.4
			c0.1,0,0.2,0,0.2,0.5v23.4h7.3V13.6C116.4,9.1,113.6,6.3,109,6.3"/>
		<path id="Path_226_00000026165434183999012520000009185120907043901882_" fill="#FFFFFF" d="M136.1,28.3c5.7,0,8.6-2.5,8.6-7.5
			c0-3.6-1.5-7.9-8.6-7.9H129c-5.6,0-8.8,3.1-8.8,8.4v7.5c0,5.3,3.2,8.4,8.8,8.4h14.6v-6.6H129c-1.9,0-2.2-0.9-2.2-1.9v-0.4
			L136.1,28.3z M126.8,22.5v-1.2c0-0.9,0.3-1.9,2.2-1.9h7.1c1.7,0,2,0.8,2,1.6c0,0.6,0,1.5-2.1,1.5L126.8,22.5z"/>
		<path id="Path_227_00000172422196619617089570000000488519043434537908_" fill="#FFFFFF" d="M161.1,12.9H152
			c-2.9,0-4.2,1.4-4.2,4.6v19.7h6.7V19.5h6.6c4.8,0,5.5,2.1,5.5,4.2v13.5h6.8V23.7C173.3,16.7,169,12.9,161.1,12.9"/>
		<path id="Path_228_00000157996336694185322840000001759751919162351025_" fill="#FFFFFF" d="M184.8,7.7H178v5.2h-3v6.6h3v9
			c0,6.1,2.3,8.7,7.7,8.7h5.1v-6.4h-4.2c-1.3,0-1.8-0.2-1.8-2.1v-9.2h6.1v-6.6h-6.1V7.7z"/>
		<path id="Path_229_00000016036906676444693810000014356115899327552421_" fill="#FFFFFF" d="M207.1,12.9h-4.6
			c-6.8,0-10.7,4.4-10.7,12.2s3.9,12.2,10.7,12.2h4.6c6.8,0,10.7-4.4,10.7-12.2S213.9,12.9,207.1,12.9 M211,25.1
			c0,4.6-1.7,5.5-4.3,5.5h-3.8c-2.7,0-4.3-0.9-4.3-5.5c0-4.6,1.7-5.6,4.3-5.6h3.8C209.3,19.5,211,20.4,211,25.1"/>
		<path id="Path_230_00000118398444010219321270000017926291946469719725_" fill="#FFFFFF" d="M227.8,12.9c-4.9,0-7.1,2.4-7.1,7.6
			v16.7h6.7V21.1c0-1.3,0.4-1.7,1.7-1.7h8.9v-6.6H227.8z"/>
	</g>
	<g>
		<linearGradient id="SVGID_1_" gradientUnits="userSpaceOnUse" x1="38.5194" y1="22" x2="58.5208" y2="22">
			<stop  offset="0" style="stop-color:#48B674"/>
			<stop  offset="1" style="stop-color:#25846B"/>
		</linearGradient>
		<polygon fill="url(#SVGID_1_)" points="38.7,43.8 38.5,21.5 58.5,0.2 58.5,22.3 		"/>
		
			<linearGradient id="SVGID_00000112622149140449369810000017244779217545252480_" gradientUnits="userSpaceOnUse" x1="19.2862" y1="22" x2="39.2876" y2="22">
			<stop  offset="0" style="stop-color:#00A3FF"/>
			<stop  offset="1" style="stop-color:#0070F1"/>
		</linearGradient>
		<polygon fill="url(#SVGID_00000112622149140449369810000017244779217545252480_)" points="19.4,43.8 19.3,21.5 39.2,0.2 
			39.3,22.3 		"/>
		
			<linearGradient id="SVGID_00000168086135206540871750000018339213201051723679_" gradientUnits="userSpaceOnUse" x1="0" y1="22" x2="20.0015" y2="22">
			<stop  offset="0" style="stop-color:#E278B3"/>
			<stop  offset="1" style="stop-color:#CA37B4"/>
		</linearGradient>
		<polygon fill="url(#SVGID_00000168086135206540871750000018339213201051723679_)" points="0.1,43.8 0,21.5 19.9,0.2 20,22.3 		"/>
	</g>
</g>
</svg>
