<?xml version="1.0" encoding="utf-8"?>
<!-- Generator: Adobe Illustrator 26.0.2, SVG Export Plug-In . SVG Version: 6.00 Build 0)  -->
<svg version="1.1" id="Layer_1" xmlns="http://www.w3.org/2000/svg" xmlns:xlink="http://www.w3.org/1999/xlink" x="0px" y="0px"
	 viewBox="0 0 238 82" enable-background="new 0 0 238 82" xml:space="preserve">
<g>
	<g>
		<path id="Path_225_00000004518104603507703700000008200216678307744935_" fill="#FFFFFF" d="M109,6.3c-5.1,0-6.9,3.4-7.7,6
			l-6.8,18c-0.1,0.4-0.4,0.4-0.5,0.4s-0.2,0-0.2-0.4V13.6c0-4.5-2.8-7.3-7.4-7.3c-5.1,0-6.9,3.4-7.7,6l-9.3,25H77l8.7-23.4
			c0.2-0.5,0.4-0.5,0.5-0.5c0.1,0,0.3,0,0.3,0.5v16.6c0,4.5,2.8,7.3,7.4,7.3c5.1,0,6.9-3.4,7.8-6l6.8-18c0.1-0.2,0.2-0.4,0.4-0.4
			c0.1,0,0.2,0,0.2,0.5v23.4h7.3V13.6C116.4,9.1,113.6,6.3,109,6.3"/>
		<path id="Path_226_00000026165434183999012520000009185120907043901882_" fill="#FFFFFF" d="M136.1,28.3c5.7,0,8.6-2.5,8.6-7.5
			c0-3.6-1.5-7.9-8.6-7.9H129c-5.6,0-8.8,3.1-8.8,8.4v7.5c0,5.3,3.2,8.4,8.8,8.4h14.6v-6.6H129c-1.9,0-2.2-0.9-2.2-1.9v-0.4
			L136.1,28.3z M126.8,22.5v-1.2c0-0.9,0.3-1.9,2.2-1.9h7.1c1.7,0,2,0.8,2,1.6c0,0.6,0,1.5-2.1,1.5L126.8,22.5z"/>
		<path id="Path_227_00000172422196619617089570000000488519043434537908_" fill="#FFFFFF" d="M161.1,12.9H152
			c-2.9,0-4.2,1.4-4.2,4.6v19.7h6.7V19.5h6.6c4.8,0,5.5,2.1,5.5,4.2v13.5h6.8V23.7C173.3,16.7,169,12.9,161.1,12.9"/>
		<path id="Path_228_00000157996336694185322840000001759751919162351025_" fill="#FFFFFF" d="M184.8,7.7H178v5.2h-3v6.6h3v9
			c0,6.1,2.3,8.7,7.7,8.7h5.1v-6.4h-4.2c-1.3,0-1.8-0.2-1.8-2.1v-9.2h6.1v-6.6h-6.1V7.7z"/>
		<path id="Path_229_00000016036906676444693810000014356115899327552421_" fill="#FFFFFF" d="M207.1,12.9h-4.6
			c-6.8,0-10.7,4.4-10.7,12.2s3.9,12.2,10.7,12.2h4.6c6.8,0,10.7-4.4,10.7-12.2S213.9,12.9,207.1,12.9 M211,25.1
			c0,4.6-1.7,5.5-4.3,5.5h-3.8c-2.7,0-4.3-0.9-4.3-5.5c0-4.6,1.7-5.6,4.3-5.6h3.8C209.3,19.5,211,20.4,211,25.1"/>
		<path id="Path_230_00000118398444010219321270000017926291946469719725_" fill="#FFFFFF" d="M227.8,12.9c-4.9,0-7.1,2.4-7.1,7.6
			v16.7h6.7V21.1c0-1.3,0.4-1.7,1.7-1.7h8.9v-6.6H227.8z"/>
	</g>
	<g>
		<linearGradient id="SVGID_1_" gradientUnits="userSpaceOnUse" x1="38.5194" y1="22" x2="58.5208" y2="22">
			<stop  offset="0" style="stop-color:#48B674"/>
			<stop  offset="1" style="stop-color:#25846B"/>
		</linearGradient>
		<polygon fill="url(#SVGID_1_)" points="38.7,43.8 38.5,21.5 58.5,0.2 58.5,22.3 		"/>
		
			<linearGradient id="SVGID_00000049932518612521217640000017083228576122249347_" gradientUnits="userSpaceOnUse" x1="19.2862" y1="22" x2="39.2876" y2="22">
			<stop  offset="0" style="stop-color:#00A3FF"/>
			<stop  offset="1" style="stop-color:#0070F1"/>
		</linearGradient>
		<polygon fill="url(#SVGID_00000049932518612521217640000017083228576122249347_)" points="19.4,43.8 19.3,21.5 39.2,0.2 
			39.3,22.3 		"/>
		
			<linearGradient id="SVGID_00000134946188266746459750000006983449955229911937_" gradientUnits="userSpaceOnUse" x1="0" y1="22" x2="20.0015" y2="22">
			<stop  offset="0" style="stop-color:#E278B3"/>
			<stop  offset="1" style="stop-color:#CA37B4"/>
		</linearGradient>
		<polygon fill="url(#SVGID_00000134946188266746459750000006983449955229911937_)" points="0.1,43.8 0,21.5 19.9,0.2 20,22.3 		"/>
	</g>
</g>
<g>
	<g>
		<path fill="#FFFFFF" d="M8.5,57v7.5H7.3V59l-2.6,3.6L2.2,59v5.5H1V57h1.1l2.6,3.8L7.4,57H8.5z"/>
		<path fill="#FFFFFF" d="M12.5,64.7c-0.9,0-1.5-0.3-2.1-0.8c-0.5-0.5-0.8-1.2-0.8-2.1c0-0.8,0.3-1.5,0.8-2c0.5-0.5,1.2-0.8,2-0.8
			c0.9,0,1.5,0.3,2,0.8c0.5,0.5,0.7,1.2,0.7,2c0,0.1,0,0.3,0,0.5h-4.4c0,0.5,0.2,0.8,0.5,1.1c0.3,0.3,0.7,0.4,1.3,0.4
			c0.7,0,1.3-0.3,1.5-0.9l1,0.3c-0.2,0.4-0.5,0.8-1,1.1C13.7,64.5,13.2,64.7,12.5,64.7L12.5,64.7z M14.1,61.5c0-0.4-0.2-0.8-0.5-1.1
			c-0.3-0.3-0.7-0.4-1.2-0.4c-0.5,0-0.8,0.1-1.2,0.4c-0.3,0.3-0.5,0.6-0.5,1H14.1z"/>
		<path fill="#FFFFFF" d="M19.3,59c0.7,0,1.2,0.2,1.6,0.6c0.4,0.4,0.6,1,0.6,1.7v3.2h-1.1v-3c0-0.5-0.1-0.8-0.3-1.1
			c-0.2-0.3-0.6-0.4-1-0.4c-0.5,0-0.8,0.2-1.1,0.5c-0.3,0.3-0.4,0.8-0.4,1.3v2.7h-1.1v-5.4h1.1v0.8C17.9,59.3,18.5,59,19.3,59
			L19.3,59z"/>
		<path fill="#FFFFFF" d="M26.2,64.4c-0.4,0.2-0.8,0.3-1.2,0.3c-0.6,0-1-0.2-1.3-0.5c-0.3-0.3-0.4-0.8-0.4-1.3v-2.7h-1v-1h1v-1.8
			h1.1v1.8h1.7v1h-1.7v2.7c0,0.6,0.3,0.8,0.8,0.8c0.2,0,0.5-0.1,0.7-0.2L26.2,64.4z"/>
		<path fill="#FFFFFF" d="M29.6,64.7c-0.8,0-1.5-0.3-2-0.8c-0.5-0.5-0.8-1.2-0.8-2c0-0.8,0.3-1.5,0.8-2c0.5-0.5,1.2-0.8,2-0.8
			c0.8,0,1.5,0.3,2.1,0.8c0.5,0.5,0.8,1.2,0.8,2c0,0.8-0.3,1.5-0.8,2C31.1,64.4,30.4,64.7,29.6,64.7L29.6,64.7z M30.8,63.1
			c0.3-0.3,0.5-0.8,0.5-1.3c0-0.5-0.2-1-0.5-1.3c-0.3-0.3-0.8-0.5-1.3-0.5c-0.5,0-0.9,0.2-1.3,0.5c-0.3,0.3-0.5,0.8-0.5,1.3
			c0,0.5,0.2,0.9,0.5,1.3c0.3,0.3,0.8,0.5,1.3,0.5C30.1,63.7,30.5,63.5,30.8,63.1z"/>
		<path fill="#FFFFFF" d="M34.7,60c0.2-0.3,0.4-0.6,0.7-0.8c0.3-0.2,0.7-0.2,1.1-0.2v1c-0.6-0.1-1,0-1.4,0.3
			c-0.3,0.3-0.5,0.9-0.5,1.6v2.4h-1.1v-5.4h1.1L34.7,60L34.7,60z"/>
		<path fill="#FFFFFF" d="M45.1,62.7h-3.6l-0.7,1.8h-1.2l3-7.5h1.5l3,7.5h-1.2L45.1,62.7z M44.7,61.7l-1.4-3.6L42,61.7H44.7z"/>
		<path fill="#FFFFFF" d="M50.3,64.7c-0.8,0-1.5-0.3-2-0.8s-0.8-1.2-0.8-2c0-0.8,0.3-1.5,0.8-2c0.5-0.5,1.2-0.8,2-0.8
			c0.7,0,1.2,0.2,1.7,0.5c0.5,0.3,0.7,0.7,0.9,1.2l-1,0.3c-0.1-0.3-0.3-0.5-0.5-0.7c-0.3-0.2-0.6-0.3-1-0.3c-0.5,0-0.9,0.2-1.3,0.5
			c-0.3,0.4-0.5,0.8-0.5,1.3c0,0.5,0.2,0.9,0.5,1.3c0.3,0.4,0.7,0.5,1.3,0.5c0.4,0,0.7-0.1,1-0.3c0.3-0.2,0.5-0.4,0.5-0.7l1,0.3
			c-0.1,0.4-0.4,0.8-0.9,1.2C51.5,64.5,50.9,64.7,50.3,64.7L50.3,64.7z"/>
		<path fill="#FFFFFF" d="M56.3,64.7c-0.8,0-1.4-0.3-1.9-0.8c-0.5-0.5-0.8-1.2-0.8-2c0-0.8,0.3-1.5,0.8-2c0.5-0.5,1.2-0.8,1.9-0.8
			c0.8,0,1.5,0.3,1.9,1v-0.8h1.1v5.4h-1.1v-0.8C57.8,64.4,57.2,64.7,56.3,64.7L56.3,64.7z M56.5,63.7c0.5,0,0.9-0.2,1.3-0.5
			c0.3-0.3,0.5-0.8,0.5-1.3c0-0.5-0.2-1-0.5-1.3C57.4,60.2,57,60,56.5,60c-0.5,0-0.9,0.2-1.3,0.5c-0.3,0.3-0.5,0.8-0.5,1.3
			s0.2,1,0.5,1.3C55.6,63.5,56,63.7,56.5,63.7L56.5,63.7z"/>
		<path fill="#FFFFFF" d="M66.3,56.7v7.8h-1.1v-0.8c-0.5,0.6-1.1,1-1.9,1c-0.8,0-1.4-0.3-1.9-0.8c-0.5-0.5-0.8-1.2-0.8-2
			c0-0.8,0.3-1.5,0.8-2c0.5-0.5,1.2-0.8,1.9-0.8c0.8,0,1.5,0.3,1.9,1v-3.3L66.3,56.7z M63.4,63.7c0.5,0,0.9-0.2,1.3-0.5
			c0.3-0.3,0.5-0.8,0.5-1.3c0-0.5-0.2-1-0.5-1.3c-0.3-0.3-0.8-0.5-1.3-0.5c-0.5,0-0.9,0.2-1.3,0.5c-0.3,0.3-0.5,0.8-0.5,1.3
			s0.2,1,0.5,1.3C62.5,63.5,62.9,63.7,63.4,63.7L63.4,63.7z"/>
		<path fill="#FFFFFF" d="M70.4,64.7c-0.9,0-1.5-0.3-2.1-0.8c-0.5-0.5-0.8-1.2-0.8-2.1c0-0.8,0.3-1.5,0.8-2c0.5-0.5,1.2-0.8,2-0.8
			c0.9,0,1.5,0.3,2,0.8c0.5,0.5,0.7,1.2,0.7,2c0,0.1,0,0.3,0,0.5h-4.4c0,0.5,0.2,0.8,0.5,1.1c0.3,0.3,0.7,0.4,1.3,0.4
			c0.7,0,1.3-0.3,1.5-0.9l1,0.3c-0.2,0.4-0.5,0.8-1,1.1C71.5,64.5,71,64.7,70.4,64.7L70.4,64.7z M71.9,61.5c0-0.4-0.2-0.8-0.5-1.1
			c-0.3-0.3-0.7-0.4-1.2-0.4c-0.5,0-0.8,0.1-1.2,0.4c-0.3,0.3-0.5,0.6-0.5,1H71.9z"/>
		<path fill="#FFFFFF" d="M80.5,59c0.6,0,1.2,0.2,1.5,0.6c0.4,0.4,0.6,1,0.6,1.7v3.2h-1.1v-3c0-0.5-0.1-0.8-0.3-1.1
			c-0.2-0.3-0.5-0.4-0.9-0.4c-0.4,0-0.7,0.2-1,0.5c-0.2,0.3-0.4,0.7-0.4,1.2v2.8h-1.1v-3c0-0.5-0.1-0.8-0.3-1.1
			c-0.2-0.3-0.5-0.4-0.9-0.4c-0.4,0-0.8,0.2-1,0.5c-0.2,0.3-0.4,0.7-0.4,1.3v2.7h-1.1v-5.4h1.1v0.7c0.4-0.6,1-0.9,1.7-0.9
			c0.8,0,1.3,0.3,1.7,0.9C79.1,59.3,79.7,59,80.5,59L80.5,59z"/>
		<path fill="#FFFFFF" d="M89.1,59.1l-3.3,7.7h-1.2l1-2.4l-2.5-5.3h1.2l1.8,4l1.7-4H89.1z"/>
		<path fill="#FFFFFF" d="M94.3,59.1h1.8v1h-1.8v4.4h-1.1v-4.4h-1.1v-1h1.1v-0.6c0-0.6,0.2-1.1,0.5-1.5c0.3-0.3,0.8-0.5,1.3-0.5
			c0.4,0,0.8,0.1,1.1,0.2l-0.3,0.9c-0.2-0.1-0.5-0.2-0.7-0.2c-0.5,0-0.8,0.3-0.8,1V59.1z"/>
		<path fill="#FFFFFF" d="M99.1,64.7c-0.8,0-1.5-0.3-2-0.8c-0.5-0.5-0.8-1.2-0.8-2c0-0.8,0.3-1.5,0.8-2c0.5-0.5,1.2-0.8,2-0.8
			c0.8,0,1.5,0.3,2.1,0.8c0.5,0.5,0.8,1.2,0.8,2c0,0.8-0.3,1.5-0.8,2C100.6,64.4,99.9,64.7,99.1,64.7L99.1,64.7z M100.4,63.1
			c0.3-0.3,0.5-0.8,0.5-1.3c0-0.5-0.2-1-0.5-1.3c-0.3-0.3-0.8-0.5-1.3-0.5c-0.5,0-0.9,0.2-1.3,0.5c-0.3,0.3-0.5,0.8-0.5,1.3
			c0,0.5,0.2,0.9,0.5,1.3c0.3,0.3,0.8,0.5,1.3,0.5C99.6,63.7,100,63.5,100.4,63.1z"/>
		<path fill="#FFFFFF" d="M104.3,60c0.2-0.3,0.4-0.6,0.7-0.8c0.3-0.2,0.7-0.2,1.1-0.2v1c-0.6-0.1-1,0-1.4,0.3
			c-0.3,0.3-0.5,0.9-0.5,1.6v2.4h-1.1v-5.4h1.1L104.3,60L104.3,60z"/>
		<path fill="#FFFFFF" d="M112.9,57c1.1,0,2,0.4,2.7,1c0.7,0.7,1,1.6,1,2.7c0,1.1-0.3,2-1,2.7c-0.7,0.7-1.5,1.1-2.7,1.1h-3.1V57
			L112.9,57L112.9,57z M112.9,63.5c0.8,0,1.4-0.3,1.8-0.8c0.5-0.5,0.7-1.2,0.7-2c0-0.8-0.2-1.4-0.7-1.9c-0.5-0.5-1.1-0.8-1.8-0.8
			H111v5.4L112.9,63.5L112.9,63.5z"/>
		<path fill="#FFFFFF" d="M120.3,64.7c-0.9,0-1.5-0.3-2.1-0.8c-0.5-0.5-0.8-1.2-0.8-2.1c0-0.8,0.3-1.5,0.8-2c0.5-0.5,1.2-0.8,2-0.8
			c0.9,0,1.5,0.3,2,0.8c0.5,0.5,0.7,1.2,0.7,2c0,0.1,0,0.3,0,0.5h-4.4c0,0.5,0.2,0.8,0.5,1.1c0.3,0.3,0.7,0.4,1.3,0.4
			c0.7,0,1.3-0.3,1.5-0.9l1,0.3c-0.2,0.4-0.5,0.8-1,1.1C121.4,64.5,120.9,64.7,120.3,64.7L120.3,64.7z M121.8,61.5
			c0-0.4-0.2-0.8-0.5-1.1c-0.3-0.3-0.7-0.4-1.2-0.4c-0.5,0-0.8,0.1-1.2,0.4c-0.3,0.3-0.5,0.6-0.5,1H121.8z"/>
		<path fill="#FFFFFF" d="M126.1,64.7c-0.6,0-1.2-0.2-1.6-0.5c-0.5-0.3-0.8-0.7-0.9-1.2l1-0.3c0.1,0.3,0.3,0.5,0.6,0.7
			s0.6,0.3,1,0.3c0.3,0,0.6-0.1,0.8-0.2s0.3-0.3,0.3-0.5c0-0.2-0.1-0.3-0.2-0.4c-0.1-0.1-0.3-0.2-0.5-0.3l-1.5-0.4
			c-0.9-0.3-1.3-0.7-1.3-1.4c0-0.4,0.2-0.8,0.6-1.1c0.4-0.3,0.9-0.5,1.5-0.5c0.6,0,1.1,0.1,1.5,0.4c0.4,0.3,0.7,0.6,0.9,1l-1,0.3
			c-0.1-0.2-0.3-0.4-0.5-0.5c-0.2-0.1-0.5-0.2-0.8-0.2c-0.3,0-0.5,0.1-0.7,0.2c-0.2,0.1-0.3,0.3-0.3,0.5c0,0.2,0.2,0.4,0.6,0.5
			l1.4,0.4c0.4,0.1,0.8,0.3,1,0.5c0.3,0.2,0.4,0.5,0.4,0.9c0,0.5-0.2,0.9-0.6,1.2C127.3,64.5,126.8,64.7,126.1,64.7L126.1,64.7z"/>
		<path fill="#FFFFFF" d="M129.7,58.1c-0.1-0.1-0.2-0.3-0.2-0.5c0-0.2,0.1-0.3,0.2-0.5c0.1-0.1,0.3-0.2,0.5-0.2s0.4,0.1,0.5,0.2
			c0.1,0.1,0.2,0.3,0.2,0.5c0,0.2-0.1,0.4-0.2,0.5s-0.3,0.2-0.5,0.2S129.8,58.2,129.7,58.1z M129.6,59.1h1.1v5.4h-1.1V59.1z"/>
		<path fill="#FFFFFF" d="M137.7,59.2v5.2c0,0.8-0.3,1.4-0.8,1.9c-0.5,0.5-1.2,0.7-2,0.7c-1.2,0-2.1-0.5-2.6-1.4l1-0.4
			c0.3,0.6,0.9,0.8,1.6,0.8c0.5,0,0.9-0.2,1.2-0.5c0.3-0.3,0.4-0.7,0.4-1.2v-0.8c-0.5,0.6-1.1,0.9-1.9,0.9c-0.8,0-1.4-0.3-1.9-0.8
			c-0.5-0.5-0.8-1.2-0.8-2c0-0.8,0.3-1.5,0.8-2c0.5-0.5,1.1-0.8,1.9-0.8c0.8,0,1.4,0.3,1.9,0.9v-0.8L137.7,59.2z M134.8,63.5
			c0.5,0,0.9-0.2,1.3-0.5c0.3-0.3,0.5-0.7,0.5-1.2s-0.2-0.9-0.5-1.2s-0.8-0.5-1.3-0.5c-0.5,0-0.9,0.2-1.3,0.5
			c-0.3,0.3-0.5,0.7-0.5,1.2s0.2,0.9,0.5,1.2C133.9,63.3,134.3,63.5,134.8,63.5L134.8,63.5z"/>
		<path fill="#FFFFFF" d="M142.1,59c0.7,0,1.2,0.2,1.6,0.6s0.6,1,0.6,1.7v3.2h-1.1v-3c0-0.5-0.1-0.8-0.3-1.1c-0.2-0.3-0.6-0.4-1-0.4
			c-0.5,0-0.8,0.2-1.1,0.5c-0.3,0.3-0.4,0.8-0.4,1.3v2.7h-1.1v-5.4h1.1v0.8C140.7,59.3,141.3,59,142.1,59L142.1,59z"/>
		<path fill="#FFFFFF" d="M149.6,58.1v2.1h3.7v1h-3.7v2.3h4.3v1.1h-5.4V57h5.4v1.1H149.6z"/>
		<path fill="#FFFFFF" d="M158.1,59c0.7,0,1.2,0.2,1.6,0.6s0.6,1,0.6,1.7v3.2h-1.1v-3c0-0.5-0.1-0.8-0.3-1.1c-0.2-0.3-0.6-0.4-1-0.4
			c-0.5,0-0.8,0.2-1.1,0.5c-0.3,0.3-0.4,0.8-0.4,1.3v2.7h-1.1v-5.4h1.1v0.8C156.7,59.3,157.3,59,158.1,59L158.1,59z"/>
		<path fill="#FFFFFF" d="M165,64.4c-0.4,0.2-0.8,0.3-1.2,0.3c-0.6,0-1-0.2-1.3-0.5c-0.3-0.3-0.4-0.8-0.4-1.3v-2.7h-1v-1h1v-1.8h1.1
			v1.8h1.7v1h-1.7v2.7c0,0.6,0.3,0.8,0.8,0.8c0.2,0,0.5-0.1,0.7-0.2L165,64.4z"/>
		<path fill="#FFFFFF" d="M167.3,60c0.2-0.3,0.4-0.6,0.7-0.8c0.3-0.2,0.7-0.2,1.1-0.2v1c-0.6-0.1-1,0-1.4,0.3
			c-0.3,0.3-0.5,0.9-0.5,1.6v2.4h-1.1v-5.4h1.1L167.3,60L167.3,60z"/>
		<path fill="#FFFFFF" d="M172.3,64.7c-0.9,0-1.5-0.3-2.1-0.8c-0.5-0.5-0.8-1.2-0.8-2.1c0-0.8,0.3-1.5,0.8-2c0.5-0.5,1.2-0.8,2-0.8
			c0.9,0,1.5,0.3,2,0.8c0.5,0.5,0.7,1.2,0.7,2c0,0.1,0,0.3,0,0.5h-4.4c0,0.5,0.2,0.8,0.5,1.1c0.3,0.3,0.7,0.4,1.3,0.4
			c0.7,0,1.3-0.3,1.5-0.9l1,0.3c-0.2,0.4-0.5,0.8-1,1.1C173.5,64.5,173,64.7,172.3,64.7L172.3,64.7z M173.9,61.5
			c0-0.4-0.2-0.8-0.5-1.1c-0.3-0.3-0.7-0.4-1.2-0.4c-0.5,0-0.8,0.1-1.2,0.4c-0.3,0.3-0.5,0.6-0.5,1H173.9z"/>
		<path fill="#FFFFFF" d="M179.2,59c0.8,0,1.4,0.3,1.9,0.8c0.5,0.5,0.8,1.2,0.8,2c0,0.8-0.3,1.5-0.8,2c-0.5,0.5-1.2,0.8-1.9,0.8
			c-0.8,0-1.5-0.3-1.9-1v3.1h-1.1v-7.7h1.1V60C177.7,59.3,178.4,59,179.2,59L179.2,59z M179,63.7c0.5,0,0.9-0.2,1.3-0.5
			c0.3-0.3,0.5-0.8,0.5-1.3s-0.2-1-0.5-1.3c-0.3-0.3-0.8-0.5-1.3-0.5c-0.5,0-0.9,0.2-1.3,0.5c-0.3,0.3-0.5,0.8-0.5,1.3
			c0,0.5,0.2,1,0.5,1.3C178.1,63.5,178.5,63.7,179,63.7L179,63.7z"/>
		<path fill="#FFFFFF" d="M184.2,60c0.2-0.3,0.4-0.6,0.7-0.8c0.3-0.2,0.7-0.2,1.1-0.2v1c-0.6-0.1-1,0-1.4,0.3
			c-0.3,0.3-0.5,0.9-0.5,1.6v2.4h-1.1v-5.4h1.1L184.2,60L184.2,60z"/>
		<path fill="#FFFFFF" d="M189.3,64.7c-0.9,0-1.5-0.3-2.1-0.8c-0.5-0.5-0.8-1.2-0.8-2.1c0-0.8,0.3-1.5,0.8-2c0.5-0.5,1.2-0.8,2-0.8
			c0.9,0,1.5,0.3,2,0.8c0.5,0.5,0.7,1.2,0.7,2c0,0.1,0,0.3,0,0.5h-4.4c0,0.5,0.2,0.8,0.5,1.1c0.3,0.3,0.7,0.4,1.3,0.4
			c0.7,0,1.3-0.3,1.5-0.9l1,0.3c-0.2,0.4-0.5,0.8-1,1.1C190.4,64.5,189.9,64.7,189.3,64.7L189.3,64.7z M190.8,61.5
			c0-0.4-0.2-0.8-0.5-1.1c-0.3-0.3-0.7-0.4-1.2-0.4c-0.5,0-0.8,0.1-1.2,0.4c-0.3,0.3-0.5,0.6-0.5,1H190.8z"/>
		<path fill="#FFFFFF" d="M196.1,59c0.7,0,1.2,0.2,1.6,0.6s0.6,1,0.6,1.7v3.2h-1.1v-3c0-0.5-0.1-0.8-0.3-1.1c-0.2-0.3-0.6-0.4-1-0.4
			c-0.5,0-0.8,0.2-1.1,0.5c-0.3,0.3-0.4,0.8-0.4,1.3v2.7h-1.1v-5.4h1.1v0.8C194.6,59.3,195.3,59,196.1,59L196.1,59z"/>
		<path fill="#FFFFFF" d="M202.2,64.7c-0.9,0-1.5-0.3-2.1-0.8c-0.5-0.5-0.8-1.2-0.8-2.1c0-0.8,0.3-1.5,0.8-2c0.5-0.5,1.2-0.8,2-0.8
			c0.9,0,1.5,0.3,2,0.8c0.5,0.5,0.7,1.2,0.7,2c0,0.1,0,0.3,0,0.5h-4.4c0,0.5,0.2,0.8,0.5,1.1c0.3,0.3,0.7,0.4,1.3,0.4
			c0.7,0,1.3-0.3,1.5-0.9l1,0.3c-0.2,0.4-0.5,0.8-1,1.1C203.4,64.5,202.8,64.7,202.2,64.7L202.2,64.7z M203.8,61.5
			c0-0.4-0.2-0.8-0.5-1.1c-0.3-0.3-0.7-0.4-1.2-0.4c-0.5,0-0.8,0.1-1.2,0.4c-0.3,0.3-0.5,0.6-0.5,1H203.8z"/>
		<path fill="#FFFFFF" d="M211.1,59.2v5.4H210v-0.8c-0.4,0.6-1.1,1-1.9,1c-0.7,0-1.2-0.2-1.6-0.6c-0.4-0.4-0.6-1-0.6-1.7v-3.2h1.1v3
			c0,0.5,0.1,0.8,0.3,1.1c0.2,0.3,0.6,0.4,1,0.4c0.5,0,0.8-0.2,1.1-0.5c0.3-0.3,0.4-0.8,0.4-1.3v-2.7L211.1,59.2z"/>
		<path fill="#FFFFFF" d="M213.7,60c0.2-0.3,0.4-0.6,0.7-0.8c0.3-0.2,0.7-0.2,1.1-0.2v1c-0.6-0.1-1,0-1.4,0.3
			c-0.3,0.3-0.5,0.9-0.5,1.6v2.4h-1.1v-5.4h1.1L213.7,60L213.7,60z"/>
		<path fill="#FFFFFF" d="M218.5,64.7c-0.6,0-1.2-0.2-1.6-0.5c-0.5-0.3-0.8-0.7-0.9-1.2l1-0.3c0.1,0.3,0.3,0.5,0.6,0.7
			c0.3,0.2,0.6,0.3,1,0.3c0.3,0,0.6-0.1,0.8-0.2s0.3-0.3,0.3-0.5c0-0.2-0.1-0.3-0.2-0.4c-0.1-0.1-0.3-0.2-0.5-0.3l-1.5-0.4
			c-0.9-0.3-1.3-0.7-1.3-1.4c0-0.4,0.2-0.8,0.6-1.1c0.4-0.3,0.9-0.5,1.5-0.5c0.6,0,1.1,0.1,1.5,0.4c0.4,0.3,0.7,0.6,0.9,1l-1,0.3
			c-0.1-0.2-0.3-0.4-0.5-0.5c-0.2-0.1-0.5-0.2-0.8-0.2c-0.3,0-0.5,0.1-0.7,0.2c-0.2,0.1-0.3,0.3-0.3,0.5c0,0.2,0.2,0.4,0.6,0.5
			l1.4,0.4c0.4,0.1,0.8,0.3,1,0.5c0.3,0.2,0.4,0.5,0.4,0.9c0,0.5-0.2,0.9-0.6,1.2C219.7,64.5,219.2,64.7,218.5,64.7L218.5,64.7z"/>
		<path fill="#FFFFFF" d="M225,59c0.7,0,1.2,0.2,1.6,0.6s0.6,1,0.6,1.7v3.2H226v-3c0-0.5-0.1-0.8-0.3-1.1c-0.2-0.3-0.6-0.4-1-0.4
			c-0.5,0-0.8,0.2-1.1,0.5c-0.3,0.3-0.4,0.8-0.4,1.3v2.7H222v-7.8h1.1v3.2C223.6,59.3,224.2,59,225,59L225,59z"/>
		<path fill="#FFFFFF" d="M228.7,58.1c-0.1-0.1-0.2-0.3-0.2-0.5c0-0.2,0.1-0.3,0.2-0.5c0.1-0.1,0.3-0.2,0.5-0.2s0.4,0.1,0.5,0.2
			c0.1,0.1,0.2,0.3,0.2,0.5c0,0.2-0.1,0.4-0.2,0.5s-0.3,0.2-0.5,0.2S228.8,58.2,228.7,58.1z M228.6,59.1h1.1v5.4h-1.1V59.1z"/>
		<path fill="#FFFFFF" d="M234.3,59c0.8,0,1.4,0.3,1.9,0.8c0.5,0.5,0.8,1.2,0.8,2c0,0.8-0.3,1.5-0.8,2c-0.5,0.5-1.2,0.8-1.9,0.8
			c-0.8,0-1.5-0.3-1.9-1v3.1h-1.1v-7.7h1.1V60C232.8,59.3,233.5,59,234.3,59L234.3,59z M234.1,63.7c0.5,0,0.9-0.2,1.3-0.5
			c0.3-0.3,0.5-0.8,0.5-1.3s-0.2-1-0.5-1.3c-0.3-0.3-0.8-0.5-1.3-0.5c-0.5,0-0.9,0.2-1.3,0.5c-0.3,0.3-0.5,0.8-0.5,1.3
			c0,0.5,0.2,1,0.5,1.3C233.2,63.5,233.6,63.7,234.1,63.7L234.1,63.7z"/>
		<path fill="#FFFFFF" d="M49.1,71.8h1.2v7.5h-1.2V71.8z"/>
		<path fill="#FFFFFF" d="M54.8,73.8c0.7,0,1.2,0.2,1.6,0.6c0.4,0.4,0.6,1,0.6,1.7v3.2h-1.1v-3c0-0.5-0.1-0.8-0.3-1.1
			c-0.2-0.3-0.6-0.4-1-0.4c-0.5,0-0.8,0.2-1.1,0.5c-0.3,0.3-0.4,0.8-0.4,1.3v2.7h-1.1v-5.4h1.1v0.8C53.4,74.1,54,73.8,54.8,73.8
			L54.8,73.8z"/>
		<path fill="#FFFFFF" d="M61.4,73.8c0.7,0,1.2,0.2,1.6,0.6c0.4,0.4,0.6,1,0.6,1.7v3.2h-1.1v-3c0-0.5-0.1-0.8-0.3-1.1
			c-0.2-0.3-0.6-0.4-1-0.4c-0.5,0-0.8,0.2-1.1,0.5c-0.3,0.3-0.4,0.8-0.4,1.3v2.7h-1.1v-5.4h1.1v0.8C60,74.1,60.6,73.8,61.4,73.8
			L61.4,73.8z"/>
		<path fill="#FFFFFF" d="M67.5,79.5c-0.8,0-1.5-0.3-2-0.8c-0.5-0.5-0.8-1.2-0.8-2c0-0.8,0.3-1.5,0.8-2c0.5-0.5,1.2-0.8,2-0.8
			c0.8,0,1.5,0.3,2.1,0.8c0.5,0.5,0.8,1.2,0.8,2s-0.3,1.5-0.8,2C69,79.2,68.3,79.5,67.5,79.5L67.5,79.5z M68.8,77.9
			c0.3-0.3,0.5-0.8,0.5-1.3c0-0.5-0.2-1-0.5-1.3c-0.3-0.3-0.8-0.5-1.3-0.5c-0.5,0-0.9,0.2-1.3,0.5c-0.3,0.3-0.5,0.8-0.5,1.3
			c0,0.5,0.2,0.9,0.5,1.3c0.3,0.3,0.8,0.5,1.3,0.5C68,78.4,68.4,78.3,68.8,77.9z"/>
		<path fill="#FFFFFF" d="M76.4,73.9l-2.3,5.4h-1.3l-2.3-5.4h1.2l1.7,4.2l1.7-4.2H76.4z"/>
		<path fill="#FFFFFF" d="M79.4,79.5c-0.8,0-1.4-0.3-1.9-0.8c-0.5-0.5-0.8-1.2-0.8-2c0-0.8,0.3-1.5,0.8-2c0.5-0.5,1.2-0.8,1.9-0.8
			c0.8,0,1.5,0.3,1.9,1v-0.8h1.1v5.4h-1.1v-0.8C80.9,79.1,80.3,79.5,79.4,79.5L79.4,79.5z M79.6,78.5c0.5,0,0.9-0.2,1.3-0.5
			c0.3-0.3,0.5-0.8,0.5-1.3c0-0.5-0.2-1-0.5-1.3c-0.3-0.3-0.8-0.5-1.3-0.5c-0.5,0-0.9,0.2-1.3,0.5c-0.3,0.3-0.5,0.8-0.5,1.3
			c0,0.5,0.2,1,0.5,1.3C78.7,78.3,79.1,78.4,79.6,78.5L79.6,78.5z"/>
		<path fill="#FFFFFF" d="M87.3,79.1c-0.4,0.2-0.8,0.3-1.2,0.3c-0.6,0-1-0.2-1.3-0.5c-0.3-0.3-0.4-0.8-0.4-1.3v-2.7h-1v-1h1v-1.8
			h1.1v1.8h1.7v1h-1.7v2.7c0,0.6,0.3,0.8,0.8,0.8c0.2,0,0.5-0.1,0.7-0.2L87.3,79.1z"/>
		<path fill="#FFFFFF" d="M88.5,72.8c-0.1-0.1-0.2-0.3-0.2-0.5c0-0.2,0.1-0.3,0.2-0.5c0.1-0.1,0.3-0.2,0.5-0.2s0.4,0.1,0.5,0.2
			c0.1,0.1,0.2,0.3,0.2,0.5c0,0.2-0.1,0.4-0.2,0.5S89.2,73,89,73S88.6,73,88.5,72.8z M88.4,73.9h1.1v5.4h-1.1V73.9z"/>
		<path fill="#FFFFFF" d="M93.6,79.5c-0.8,0-1.5-0.3-2-0.8c-0.5-0.5-0.8-1.2-0.8-2c0-0.8,0.3-1.5,0.8-2c0.5-0.5,1.2-0.8,2-0.8
			c0.8,0,1.5,0.3,2.1,0.8c0.5,0.5,0.8,1.2,0.8,2s-0.3,1.5-0.8,2C95.1,79.2,94.4,79.5,93.6,79.5L93.6,79.5z M94.9,77.9
			c0.3-0.3,0.5-0.8,0.5-1.3c0-0.5-0.2-1-0.5-1.3c-0.3-0.3-0.8-0.5-1.3-0.5c-0.5,0-0.9,0.2-1.3,0.5c-0.3,0.3-0.5,0.8-0.5,1.3
			c0,0.5,0.2,0.9,0.5,1.3c0.3,0.3,0.8,0.5,1.3,0.5C94.1,78.4,94.5,78.3,94.9,77.9z"/>
		<path fill="#FFFFFF" d="M100.6,73.8c0.7,0,1.2,0.2,1.6,0.6c0.4,0.4,0.6,1,0.6,1.7v3.2h-1.1v-3c0-0.5-0.1-0.8-0.3-1.1
			c-0.2-0.3-0.6-0.4-1-0.4c-0.5,0-0.8,0.2-1.1,0.5c-0.3,0.3-0.4,0.8-0.4,1.3v2.7h-1.1v-5.4h1.1v0.8C99.2,74.1,99.8,73.8,100.6,73.8
			L100.6,73.8z"/>
		<path fill="#FFFFFF" d="M109.3,79.5c-0.8,0-1.4-0.3-1.9-0.8c-0.5-0.5-0.8-1.2-0.8-2c0-0.8,0.3-1.5,0.8-2c0.5-0.5,1.2-0.8,1.9-0.8
			c0.8,0,1.5,0.3,1.9,1v-0.8h1.1v5.4h-1.1v-0.8C110.8,79.1,110.1,79.5,109.3,79.5L109.3,79.5z M109.4,78.5c0.5,0,0.9-0.2,1.3-0.5
			c0.3-0.3,0.5-0.8,0.5-1.3c0-0.5-0.2-1-0.5-1.3c-0.3-0.3-0.8-0.5-1.3-0.5c-0.5,0-0.9,0.2-1.3,0.5c-0.3,0.3-0.5,0.8-0.5,1.3
			c0,0.5,0.2,1,0.5,1.3C108.5,78.3,108.9,78.4,109.4,78.5L109.4,78.5z"/>
		<path fill="#FFFFFF" d="M116.8,73.8c0.7,0,1.2,0.2,1.6,0.6c0.4,0.4,0.6,1,0.6,1.7v3.2h-1.1v-3c0-0.5-0.1-0.8-0.3-1.1
			c-0.2-0.3-0.6-0.4-1-0.4c-0.5,0-0.8,0.2-1.1,0.5c-0.3,0.3-0.4,0.8-0.4,1.3v2.7h-1.1v-5.4h1.1v0.8C115.4,74.1,116,73.8,116.8,73.8
			L116.8,73.8z"/>
		<path fill="#FFFFFF" d="M125.8,71.5v7.8h-1.1v-0.8c-0.5,0.6-1.1,1-1.9,1c-0.8,0-1.4-0.3-1.9-0.8c-0.5-0.5-0.8-1.2-0.8-2
			c0-0.8,0.3-1.5,0.8-2c0.5-0.5,1.2-0.8,1.9-0.8c0.8,0,1.5,0.3,1.9,1v-3.3L125.8,71.5z M122.9,78.5c0.5,0,0.9-0.2,1.3-0.5
			c0.3-0.3,0.5-0.8,0.5-1.3c0-0.5-0.2-1-0.5-1.3c-0.3-0.3-0.8-0.5-1.3-0.5c-0.5,0-0.9,0.2-1.3,0.5c-0.3,0.3-0.5,0.8-0.5,1.3
			c0,0.5,0.2,1,0.5,1.3C122,78.3,122.4,78.4,122.9,78.5L122.9,78.5z"/>
		<path fill="#FFFFFF" d="M135.9,72.9h-2.6v6.5h-1.2v-6.5h-2.7v-1.1h6.5V72.9z"/>
		<path fill="#FFFFFF" d="M138.2,79.5c-0.9,0-1.5-0.3-2.1-0.8c-0.5-0.5-0.8-1.2-0.8-2.1c0-0.8,0.3-1.5,0.8-2c0.5-0.5,1.2-0.8,2-0.8
			c0.9,0,1.5,0.3,2,0.8c0.5,0.5,0.7,1.2,0.7,2c0,0.1,0,0.3,0,0.5h-4.4c0,0.5,0.2,0.8,0.5,1.1c0.3,0.3,0.7,0.4,1.3,0.4
			c0.7,0,1.3-0.3,1.5-0.9l1,0.3c-0.2,0.4-0.5,0.8-1,1.1C139.4,79.3,138.9,79.5,138.2,79.5L138.2,79.5z M139.8,76.2
			c0-0.4-0.2-0.8-0.5-1.1c-0.3-0.3-0.7-0.4-1.2-0.4c-0.5,0-0.8,0.1-1.2,0.4c-0.3,0.3-0.5,0.6-0.5,1H139.8z"/>
		<path fill="#FFFFFF" d="M144.6,79.5c-0.8,0-1.5-0.3-2-0.8s-0.8-1.2-0.8-2c0-0.8,0.3-1.5,0.8-2c0.5-0.5,1.2-0.8,2-0.8
			c0.7,0,1.2,0.2,1.7,0.5c0.5,0.3,0.7,0.7,0.9,1.2l-1,0.3c-0.1-0.3-0.3-0.5-0.5-0.7c-0.3-0.2-0.6-0.3-1-0.3c-0.5,0-0.9,0.2-1.3,0.5
			c-0.3,0.4-0.5,0.8-0.5,1.3c0,0.5,0.2,0.9,0.5,1.3c0.3,0.4,0.7,0.5,1.3,0.5c0.4,0,0.7-0.1,1-0.3c0.3-0.2,0.5-0.4,0.5-0.7l1,0.3
			c-0.1,0.4-0.4,0.8-0.9,1.2S145.2,79.5,144.6,79.5L144.6,79.5z"/>
		<path fill="#FFFFFF" d="M151.2,73.8c0.7,0,1.2,0.2,1.6,0.6s0.6,1,0.6,1.7v3.2h-1.1v-3c0-0.5-0.1-0.8-0.3-1.1
			c-0.2-0.3-0.6-0.4-1-0.4c-0.5,0-0.8,0.2-1.1,0.5c-0.3,0.3-0.4,0.8-0.4,1.3v2.7h-1.1v-7.8h1.1v3.2
			C149.8,74.1,150.4,73.8,151.2,73.8L151.2,73.8z"/>
		<path fill="#FFFFFF" d="M157.8,73.8c0.7,0,1.2,0.2,1.6,0.6s0.6,1,0.6,1.7v3.2h-1.1v-3c0-0.5-0.1-0.8-0.3-1.1
			c-0.2-0.3-0.6-0.4-1-0.4c-0.5,0-0.8,0.2-1.1,0.5c-0.3,0.3-0.4,0.8-0.4,1.3v2.7h-1.1v-5.4h1.1v0.8C156.4,74.1,157,73.8,157.8,73.8
			L157.8,73.8z"/>
		<path fill="#FFFFFF" d="M163.9,79.5c-0.8,0-1.5-0.3-2-0.8c-0.5-0.5-0.8-1.2-0.8-2c0-0.8,0.3-1.5,0.8-2c0.5-0.5,1.2-0.8,2-0.8
			s1.5,0.3,2.1,0.8c0.5,0.5,0.8,1.2,0.8,2s-0.3,1.5-0.8,2C165.4,79.2,164.7,79.5,163.9,79.5L163.9,79.5z M165.2,77.9
			c0.3-0.3,0.5-0.8,0.5-1.3c0-0.5-0.2-1-0.5-1.3c-0.3-0.3-0.8-0.5-1.3-0.5s-0.9,0.2-1.3,0.5c-0.3,0.3-0.5,0.8-0.5,1.3
			c0,0.5,0.2,0.9,0.5,1.3c0.3,0.3,0.8,0.5,1.3,0.5S164.8,78.3,165.2,77.9z"/>
		<path fill="#FFFFFF" d="M167.9,71.5h1.1v7.8h-1.1V71.5z"/>
		<path fill="#FFFFFF" d="M173.1,79.5c-0.8,0-1.5-0.3-2-0.8c-0.5-0.5-0.8-1.2-0.8-2c0-0.8,0.3-1.5,0.8-2c0.5-0.5,1.2-0.8,2-0.8
			s1.5,0.3,2.1,0.8c0.5,0.5,0.8,1.2,0.8,2s-0.3,1.5-0.8,2C174.6,79.2,173.9,79.5,173.1,79.5L173.1,79.5z M174.4,77.9
			c0.3-0.3,0.5-0.8,0.5-1.3c0-0.5-0.2-1-0.5-1.3c-0.3-0.3-0.8-0.5-1.3-0.5s-0.9,0.2-1.3,0.5c-0.3,0.3-0.5,0.8-0.5,1.3
			c0,0.5,0.2,0.9,0.5,1.3c0.3,0.3,0.8,0.5,1.3,0.5S174,78.3,174.4,77.9z"/>
		<path fill="#FFFFFF" d="M182.5,73.9v5.2c0,0.8-0.3,1.4-0.8,1.9c-0.5,0.5-1.2,0.7-2,0.7c-1.2,0-2.1-0.5-2.6-1.4l1-0.4
			c0.3,0.6,0.9,0.8,1.6,0.8c0.5,0,0.9-0.2,1.2-0.5c0.3-0.3,0.4-0.7,0.4-1.2v-0.8c-0.5,0.6-1.1,0.9-1.9,0.9c-0.8,0-1.4-0.3-1.9-0.8
			c-0.5-0.5-0.8-1.2-0.8-2c0-0.8,0.3-1.5,0.8-2c0.5-0.5,1.1-0.8,1.9-0.8c0.8,0,1.4,0.3,1.9,0.9v-0.8L182.5,73.9z M179.7,78.3
			c0.5,0,0.9-0.2,1.3-0.5c0.3-0.3,0.5-0.7,0.5-1.2c0-0.5-0.2-0.9-0.5-1.2c-0.3-0.3-0.8-0.5-1.3-0.5c-0.5,0-0.9,0.2-1.3,0.5
			c-0.3,0.3-0.5,0.7-0.5,1.2s0.2,0.9,0.5,1.2C178.7,78.1,179.2,78.3,179.7,78.3L179.7,78.3z"/>
		<path fill="#FFFFFF" d="M189.2,73.9l-3.3,7.7h-1.2l1-2.4l-2.5-5.3h1.2l1.8,4l1.7-4H189.2z"/>
	</g>
</g>
</svg>
