<svg width="19" height="18" viewBox="0 0 19 18" fill="none" xmlns="http://www.w3.org/2000/svg">
<path d="M13.944 3.63709C14.634 3.63709 15.1932 3.0778 15.1932 2.38788C15.1932 1.69796 14.634 1.13867 13.944 1.13867C13.2541 1.13867 12.6948 1.69796 12.6948 2.38788C12.6948 3.0778 13.2541 3.63709 13.944 3.63709Z" stroke="#C1C1C1" stroke-linecap="round" stroke-linejoin="round"/>
<path d="M11.8361 13.6328C11.0396 14.0443 10.1561 14.259 9.2596 14.259C8.36309 14.259 7.47961 14.0443 6.68311 13.6328" stroke="#C1C1C1" stroke-linecap="round" stroke-linejoin="round"/>
<path d="M9.26025 5.51325L9.88486 1.76562L12.7112 2.20285" stroke="#C1C1C1" stroke-linecap="round" stroke-linejoin="round"/>
<path d="M3.90334 6.90927C5.33213 6.03483 7.20594 5.51172 9.25933 5.51172C11.3127 5.51172 13.1865 6.03483 14.6153 6.90927C14.7792 6.68439 14.9911 6.49883 15.2356 6.36606C15.4801 6.2333 15.7512 6.15665 16.029 6.1417C16.3069 6.12675 16.5846 6.17387 16.8419 6.27963C17.0993 6.38539 17.3299 6.54714 17.5169 6.75314C17.704 6.95914 17.8428 7.20421 17.9233 7.47055C18.0039 7.7369 18.0241 8.01783 17.9825 8.29296C17.9409 8.56808 17.8385 8.83048 17.6828 9.06112C17.5272 9.29175 17.3221 9.48482 17.0825 9.6263V9.6263C17.2788 10.1044 17.3796 10.6163 17.3792 11.1332C17.3792 14.2406 13.7409 16.7546 9.25933 16.7546C4.77779 16.7546 1.13947 14.2406 1.13947 11.1332C1.13904 10.6163 1.23983 10.1044 1.43615 9.6263V9.6263C1.19656 9.48482 0.991482 9.29175 0.835815 9.06112C0.680147 8.83048 0.577797 8.56808 0.536197 8.29296C0.494597 8.01783 0.514791 7.7369 0.595314 7.47055C0.675837 7.20421 0.814666 6.95914 1.00172 6.75314C1.18877 6.54714 1.41936 6.38539 1.67672 6.27963C1.93409 6.17387 2.21178 6.12675 2.48963 6.1417C2.76748 6.15665 3.03851 6.2333 3.28305 6.36606C3.52758 6.49883 3.73947 6.68439 3.90334 6.90927V6.90927Z" stroke="#C1C1C1" stroke-linecap="round" stroke-linejoin="round"/>
<path d="M6.13642 11.4457C6.82634 11.4457 7.38563 10.8864 7.38563 10.1965C7.38563 9.50656 6.82634 8.94727 6.13642 8.94727C5.4465 8.94727 4.88721 9.50656 4.88721 10.1965C4.88721 10.8864 5.4465 11.4457 6.13642 11.4457Z" fill="#C1C1C1"/>
<path d="M12.3828 11.4457C13.0727 11.4457 13.632 10.8864 13.632 10.1965C13.632 9.50656 13.0727 8.94727 12.3828 8.94727C11.6928 8.94727 11.1335 9.50656 11.1335 10.1965C11.1335 10.8864 11.6928 11.4457 12.3828 11.4457Z" fill="#C1C1C1"/>
</svg>
