<svg width="47" height="47" viewBox="0 0 47 47" fill="none" xmlns="http://www.w3.org/2000/svg">
<g filter="url(#filter0_i_2100_22253)">
<path d="M4.14453 34.9723C1.34995 30.2574 0.372441 24.6846 1.39551 19.3001C2.41858 13.9156 5.37188 9.08962 9.70096 5.72826C14.0301 2.36689 19.4372 0.701269 24.9073 1.04408C30.3774 1.38689 35.5343 3.71456 39.4099 7.59011C43.2854 11.4657 45.6131 16.6226 45.9559 22.0927C46.2987 27.5628 44.6331 32.9699 41.2717 37.299C37.9104 41.6281 33.0844 44.5814 27.6999 45.6045C22.3154 46.6276 16.7426 45.65 12.0277 42.8555L4.23838 45.0609C3.91924 45.1542 3.58087 45.16 3.25874 45.0776C2.93661 44.9952 2.64257 44.8277 2.40746 44.5925C2.17234 44.3574 2.0048 44.0634 1.9224 43.7413C1.84 43.4191 1.84577 43.0808 1.93911 42.7616L4.14453 34.9723Z" fill="black"/>
</g>
<path d="M4.14453 34.9723C1.34995 30.2574 0.372441 24.6846 1.39551 19.3001C2.41858 13.9156 5.37188 9.08962 9.70096 5.72826C14.0301 2.36689 19.4372 0.701269 24.9073 1.04408C30.3774 1.38689 35.5343 3.71456 39.4099 7.59011C43.2854 11.4657 45.6131 16.6226 45.9559 22.0927C46.2987 27.5628 44.6331 32.9699 41.2717 37.299C37.9104 41.6281 33.0844 44.5814 27.6999 45.6045C22.3154 46.6276 16.7426 45.65 12.0277 42.8555L4.23838 45.0609C3.91924 45.1542 3.58087 45.16 3.25874 45.0776C2.93661 44.9952 2.64257 44.8277 2.40746 44.5925C2.17234 44.3574 2.0048 44.0634 1.9224 43.7413C1.84 43.4191 1.84577 43.0808 1.93911 42.7616L4.14453 34.9723Z" stroke="#00880E" stroke-width="1.6" stroke-linecap="round"/>
<path d="M4.14453 34.9723C1.34995 30.2574 0.372441 24.6846 1.39551 19.3001C2.41858 13.9156 5.37188 9.08962 9.70096 5.72826C14.0301 2.36689 19.4372 0.701269 24.9073 1.04408C30.3774 1.38689 35.5343 3.71456 39.4099 7.59011C43.2854 11.4657 45.6131 16.6226 45.9559 22.0927C46.2987 27.5628 44.6331 32.9699 41.2717 37.299C37.9104 41.6281 33.0844 44.5814 27.6999 45.6045C22.3154 46.6276 16.7426 45.65 12.0277 42.8555L4.23838 45.0609C3.91924 45.1542 3.58087 45.16 3.25874 45.0776C2.93661 44.9952 2.64257 44.8277 2.40746 44.5925C2.17234 44.3574 2.0048 44.0634 1.9224 43.7413C1.84 43.4191 1.84577 43.0808 1.93911 42.7616L4.14453 34.9723Z" stroke="white" stroke-opacity="0.24" stroke-width="1.6" stroke-linecap="round"/>
<path d="M29.0714 36.9994C26.5652 37.0057 24.0824 36.5167 21.7657 35.5605C19.449 34.6043 17.3441 33.1997 15.5719 31.4275C13.7997 29.6553 12.3952 27.5504 11.439 25.2337C10.4828 22.9171 9.99378 20.4343 10.0001 17.928C10.0064 16.1641 10.7115 14.4745 11.9611 13.2294C13.2106 11.9843 14.9027 11.2852 16.6667 11.2852V11.2852C16.9577 11.2829 17.244 11.3591 17.4954 11.5057C17.7468 11.6524 17.954 11.8641 18.0953 12.1185L20.881 16.9757C21.0466 17.2709 21.1316 17.6046 21.1275 17.9431C21.1233 18.2817 21.0301 18.6131 20.8572 18.9042L18.6191 22.6423C19.7654 25.1925 21.8069 27.234 24.3571 28.3804L28.0952 26.1423C28.3863 25.9694 28.7178 25.8762 29.0563 25.872C29.3948 25.8678 29.7285 25.9528 30.0238 26.1185L34.8809 28.9042C35.1354 29.0454 35.3471 29.2526 35.4937 29.504C35.6404 29.7554 35.7166 30.0417 35.7142 30.3327C35.708 32.0948 35.0069 33.7833 33.7631 35.0315C32.5194 36.2797 30.8334 36.9869 29.0714 36.9994V36.9994Z" stroke="#00880E" stroke-width="1.6" stroke-linecap="round"/>
<path d="M29.0714 36.9994C26.5652 37.0057 24.0824 36.5167 21.7657 35.5605C19.449 34.6043 17.3441 33.1997 15.5719 31.4275C13.7997 29.6553 12.3952 27.5504 11.439 25.2337C10.4828 22.9171 9.99378 20.4343 10.0001 17.928C10.0064 16.1641 10.7115 14.4745 11.9611 13.2294C13.2106 11.9843 14.9027 11.2852 16.6667 11.2852V11.2852C16.9577 11.2829 17.244 11.3591 17.4954 11.5057C17.7468 11.6524 17.954 11.8641 18.0953 12.1185L20.881 16.9757C21.0466 17.2709 21.1316 17.6046 21.1275 17.9431C21.1233 18.2817 21.0301 18.6131 20.8572 18.9042L18.6191 22.6423C19.7654 25.1925 21.8069 27.234 24.3571 28.3804L28.0952 26.1423C28.3863 25.9694 28.7178 25.8762 29.0563 25.872C29.3948 25.8678 29.7285 25.9528 30.0238 26.1185L34.8809 28.9042C35.1354 29.0454 35.3471 29.2526 35.4937 29.504C35.6404 29.7554 35.7166 30.0417 35.7142 30.3327C35.708 32.0948 35.0069 33.7833 33.7631 35.0315C32.5194 36.2797 30.8334 36.9869 29.0714 36.9994V36.9994Z" stroke="white" stroke-opacity="0.24" stroke-width="1.6" stroke-linecap="round"/>
<defs>
<filter id="filter0_i_2100_22253" x="0.200195" y="0.199951" width="46.5996" height="46.6001" filterUnits="userSpaceOnUse" color-interpolation-filters="sRGB">
<feFlood flood-opacity="0" result="BackgroundImageFix"/>
<feBlend mode="normal" in="SourceGraphic" in2="BackgroundImageFix" result="shape"/>
<feColorMatrix in="SourceAlpha" type="matrix" values="0 0 0 0 0 0 0 0 0 0 0 0 0 0 0 0 0 0 127 0" result="hardAlpha"/>
<feOffset/>
<feGaussianBlur stdDeviation="9.64286"/>
<feComposite in2="hardAlpha" operator="arithmetic" k2="-1" k3="1"/>
<feColorMatrix type="matrix" values="0 0 0 0 0 0 0 0 0 0.694118 0 0 0 0 0.0705882 0 0 0 0.25 0"/>
<feBlend mode="normal" in2="shape" result="effect1_innerShadow_2100_22253"/>
</filter>
</defs>
</svg>
